<?xml version="1.0" encoding="UTF-8" standalone="no"?>
<!-- Creator: CorelDRAW -->

<svg
   xmlns:dc="http://purl.org/dc/elements/1.1/"
   xmlns:cc="http://creativecommons.org/ns#"
   xmlns:rdf="http://www.w3.org/1999/02/22-rdf-syntax-ns#"
   xmlns:svg="http://www.w3.org/2000/svg"
   xmlns="http://www.w3.org/2000/svg"
   xmlns:xlink="http://www.w3.org/1999/xlink"
   xmlns:sodipodi="http://sodipodi.sourceforge.net/DTD/sodipodi-0.dtd"
   xmlns:inkscape="http://www.inkscape.org/namespaces/inkscape"
   xml:space="preserve"
   width="66.115982"
   height="65.401306"
   style="fill-rule:evenodd"
   viewBox="0 0 18.6594 18.457702"
   id="svg2"
   version="1.1"
   inkscape:version="0.48.4 r9939"
   sodipodi:docname="TPDIcon.svg"><metadata
     id="metadata60"><rdf:RDF><cc:Work
         rdf:about=""><dc:format>image/svg+xml</dc:format><dc:type
           rdf:resource="http://purl.org/dc/dcmitype/StillImage" /></cc:Work></rdf:RDF></metadata><sodipodi:namedview
     pagecolor="#ffffff"
     bordercolor="#666666"
     borderopacity="1"
     objecttolerance="10"
     gridtolerance="10"
     guidetolerance="10"
     inkscape:pageopacity="0"
     inkscape:pageshadow="2"
     inkscape:window-width="640"
     inkscape:window-height="480"
     id="namedview58"
     showgrid="false"
     fit-margin-top="0"
     fit-margin-left="0"
     fit-margin-right="0"
     fit-margin-bottom="0"
     inkscape:zoom="0.22425739"
     inkscape:cx="315.02976"
     inkscape:cy="433.37729"
     inkscape:window-x="785"
     inkscape:window-y="261"
     inkscape:window-maximized="0"
     inkscape:current-layer="svg2" /><defs
     id="defs4"><style
       type="text/css"
       id="style6">
    .str0 {stroke:#DA251D;stroke-width:0.0762}
    .fil2 {fill:#1F1A17}
    .fil0 {fill:#72706F}
    .fil7 {fill:#DA251D}
    .fil3 {fill:#1F1A17;fill-rule:nonzero}
    .fil1 {fill:#72706F;fill-rule:nonzero}
    .fil6 {fill:url(#id0)}
    .fil4 {fill:url(#id1)}
    .fil5 {fill:url(#id2)}
   </style><linearGradient
       id="id0"
       gradientUnits="userSpaceOnUse"
       x1="23.7509"
       y1="259.491"
       x2="27.091499"
       y2="259.491"><stop
         offset="0"
         style="stop-color:#1F1A17"
         id="stop9" /><stop
         offset="0.278431"
         style="stop-color:#4D4948"
         id="stop11" /><stop
         offset="0.631373"
         style="stop-color:white"
         id="stop13" /><stop
         offset="0.831373"
         style="stop-color:#605D5C"
         id="stop15" /><stop
         offset="1"
         style="stop-color:#1F1A17"
         id="stop17" /></linearGradient><linearGradient
       id="id1"
       gradientUnits="userSpaceOnUse"
       xlink:href="#id0"
       x1="23.4221"
       y1="253.50999"
       x2="27.420401"
       y2="253.50999" /><linearGradient
       id="id2"
       gradientUnits="userSpaceOnUse"
       x1="22.9485"
       y1="255.117"
       x2="27.8939"
       y2="255.117"><stop
         offset="0"
         style="stop-color:#1F1A17"
         id="stop21" /><stop
         offset="0.301961"
         style="stop-color:#4D4948"
         id="stop23" /><stop
         offset="0.678431"
         style="stop-color:white"
         id="stop25" /><stop
         offset="0.858824"
         style="stop-color:#605D5C"
         id="stop27" /><stop
         offset="1"
         style="stop-color:#1F1A17"
         id="stop29" /></linearGradient><linearGradient
       inkscape:collect="always"
       xlink:href="#id0"
       id="linearGradient3037"
       gradientUnits="userSpaceOnUse"
       x1="23.4221"
       y1="253.50999"
       x2="27.420401"
       y2="253.50999" /><linearGradient
       inkscape:collect="always"
       xlink:href="#id2"
       id="linearGradient3039"
       gradientUnits="userSpaceOnUse"
       x1="22.9485"
       y1="255.117"
       x2="27.8939"
       y2="255.117" /><linearGradient
       inkscape:collect="always"
       xlink:href="#id2"
       id="linearGradient3041"
       gradientUnits="userSpaceOnUse"
       x1="22.9485"
       y1="255.117"
       x2="27.8939"
       y2="255.117" /><linearGradient
       inkscape:collect="always"
       xlink:href="#id0"
       id="linearGradient3043"
       gradientUnits="userSpaceOnUse"
       x1="23.7509"
       y1="259.491"
       x2="27.091499"
       y2="259.491" /><linearGradient
       inkscape:collect="always"
       xlink:href="#id0"
       id="linearGradient3045"
       gradientUnits="userSpaceOnUse"
       x1="23.7509"
       y1="259.491"
       x2="27.091499"
       y2="259.491" /></defs><g
     id="Layer_x0020_1"
     transform="translate(-16.0916,-252.351)"><metadata
       id="CorelCorpID_0Corel-Layer" /><g
       id="g33"><path
         class="fil0"
         d="m 25.4213,270.738 c 5.1128,0 9.2593,-4.5215 9.2593,-9.2593 0,-4.6678 -2.9312,-7.9233 -6.9026,-8.9555 l 0,1.9731 0.1159,0 0.3576,0 0,0.3576 0,0.5267 0,0.3575 -0.3576,0 -0.1948,0 0,1.3668 0.2103,0 0,0.3576 0,0.3714 c 1.1602,0.7526 1.9221,1.7424 1.9221,3.6448 0,2.0211 -1.9746,4.4102 -4.4102,4.4102 -2.4357,0 -4.4102,-1.9746 -4.4102,-4.4102 0,-1.5123 0.7618,-2.8461 1.9219,-3.6407 l 0,-0.3755 0,-0.3576 0.2103,0 0,-1.3668 -0.1947,0 -0.3576,0 0,-0.3575 0,-0.5267 0,-0.3576 0.3576,0 0.1159,0 0,-1.973 c -3.9714,1.0429 -6.9025,4.6572 -6.9025,8.9554 0,5.1129 4.1464,9.2593 9.2593,9.2593 z"
         id="path35"
         inkscape:connector-curvature="0"
         style="fill:#72706f" /><path
         id="1"
         class="fil1"
         d="m 34.6102,261.479 0.1408,0 0,0 -0.0124,0.447 -0.036,0.4452 -0.0594,0.4421 -0.0821,0.4384 -0.1042,0.4338 -0.1259,0.4287 -0.1467,0.4224 -0.1669,0.4157 -0.1868,0.4076 -0.2061,0.3995 -0.2247,0.3902 -0.2425,0.3801 -0.2601,0.3695 -0.2769,0.3577 -0.2929,0.3453 -0.3089,0.332 -0.3237,0.3181 -0.3385,0.3035 -0.3522,0.2878 -0.3659,0.2717 -0.3783,0.2541 -0.3906,0.2366 -0.4022,0.2178 -0.4135,0.1981 -0.4234,0.1778 -0.4338,0.1566 -0.4427,0.1349 -0.4515,0.1123 -0.4597,0.0884 -0.4673,0.0643 -0.4737,0.0391 -0.4802,0.0134 0,-0.1408 0.4726,-0.0128 0.4665,-0.0385 0.4595,-0.0633 0.4521,-0.0872 0.4443,-0.1101 0.4361,-0.1327 0.4266,-0.1544 0.4174,-0.1752 0.4069,-0.1953 0.3962,-0.2144 0.385,-0.2328 0.3729,-0.2509 0.3603,-0.2673 0.3474,-0.2838 0.3335,-0.2991 0.3193,-0.3137 0.3045,-0.3276 0.2891,-0.3405 0.2729,-0.3527 0.2563,-0.3639 0.2393,-0.3747 0.2213,-0.3846 0.2029,-0.3935 0.184,-0.4022 0.1647,-0.4091 0.1445,-0.4162 0.1237,-0.4217 0.1026,-0.4272 0.0809,-0.4312 0.0584,-0.4349 0.0354,-0.4376 0.0118,-0.4398 0,0 z m -6.7618,-8.9555 -0.1408,0 0.088,-0.0679 0.3717,0.1038 0.3652,0.117 0.3585,0.1297 0.3513,0.1425 0.3439,0.155 0.3359,0.1676 0.3279,0.1794 0.3194,0.1918 0.3102,0.2036 0.3012,0.2154 0.2915,0.2274 0.2815,0.2386 0.2712,0.2499 0.2607,0.2613 0.2494,0.2723 0.2382,0.283 0.2265,0.294 0.2143,0.3045 0.2019,0.3147 0.1893,0.3254 0.176,0.3351 0.1624,0.3455 0.1488,0.355 0.1345,0.3647 0.12,0.3744 0.1051,0.3835 0.0897,0.3928 0.0744,0.4016 0.0585,0.4108 0.0421,0.4191 0.0254,0.4279 0.0088,0.4361 -0.1408,0 -0.0082,-0.4307 -0.0254,-0.4223 -0.0415,-0.4137 -0.0575,-0.4046 -0.0732,-0.3962 -0.0887,-0.3868 -0.1035,-0.3779 -0.1182,-0.3684 -0.1323,-0.3591 -0.1462,-0.3496 -0.1602,-0.3395 -0.1732,-0.3301 -0.1859,-0.3198 -0.1987,-0.3099 -0.2109,-0.2995 -0.2227,-0.289 -0.2344,-0.2786 -0.2456,-0.2679 -0.2563,-0.2569 -0.2668,-0.2461 -0.2771,-0.2348 -0.2871,-0.2234 -0.2962,-0.2122 -0.3058,-0.2008 -0.3144,-0.1886 -0.3229,-0.1772 -0.3311,-0.1648 -0.3389,-0.1528 -0.3463,-0.1403 -0.3535,-0.1281 -0.3604,-0.1152 -0.3667,-0.1028 0.088,-0.0679 z m -0.1408,0 0,-0.0907 0.088,0.0228 -0.088,0.0679 z m 0.0704,2.0435 -0.0704,-0.0704 0,-1.9731 0.1408,0 0,1.9731 -0.0704,0.0704 z m 0,0 -0.0704,0 0,-0.0704 0.0704,0.0704 z m 0.1159,0 0,0 -0.1159,0 0,-0.1408 0.1159,0 0,0.1408 z m 0,-0.1408 0,0 0,0 0,0 z m 0.428,0.0704 -0.0704,0.0704 -0.3576,0 0,-0.1408 0.3576,0 0.0704,0.0704 z m -0.0704,-0.0704 0.0704,0 0,0.0704 -0.0704,-0.0704 z m -0.0704,0.428 0,0 0,-0.3576 0.1408,0 0,0.3576 -0.1408,0 z m 0.1408,0 0,0 0,0 0,0 z m -0.1408,0.5267 0,0 0,-0.5267 0.1408,0 0,0.5267 -0.1408,0 z m 0.1408,0 0,0 0,0 0,0 z m -0.0704,0.4279 -0.0704,-0.0704 0,-0.3575 0.1408,0 0,0.3575 -0.0704,0.0704 z m 0.0704,-0.0704 0,0.0704 -0.0704,0 0.0704,-0.0704 z m -0.428,-0.0704 0,0 0.3576,0 0,0.1408 -0.3576,0 0,-0.1408 z m 0,0.1408 0,0 0,0 0,0 z m -0.2649,-0.0704 0.0701,-0.0704 0.1948,0 0,0.1408 -0.1948,0 -0.0701,-0.0704 z m 0,0 0,-0.0704 0.0701,0 -0.0701,0.0704 z m 0.0701,1.4372 -0.0701,-0.0704 0,-1.3668 0.1402,0 0,1.3668 -0.0701,0.0704 z m 0,0 -0.0701,0 0,-0.0704 0.0701,0.0704 z m 0.2807,-0.0704 -0.0704,0.0704 -0.2103,0 0,-0.1408 0.2103,0 0.0704,0.0704 z m -0.0704,-0.0704 0.0704,0 0,0.0704 -0.0704,-0.0704 z m -0.0704,0.428 0,0 0,-0.3576 0.1408,0 0,0.3576 -0.1408,0 z m 0.1408,0 0,0 0,0 0,0 z m -0.1086,0.4302 -0.0322,-0.0588 0,-0.3714 0.1408,0 0,0.3714 -0.1086,0.0588 z m 0,0 -0.0322,-0.0208 0,-0.038 0.0322,0.0588 z m 2.0307,3.586 -0.1408,0 0,0 -0.0019,-0.1741 -0.0066,-0.1685 -0.011,-0.1634 -0.0149,-0.1585 -0.0192,-0.1534 -0.0233,-0.1486 -0.027,-0.144 -0.0311,-0.1395 -0.0349,-0.1349 -0.0389,-0.1309 -0.0424,-0.1266 -0.0459,-0.1226 -0.0497,-0.119 -0.053,-0.1149 -0.0567,-0.1113 -0.0599,-0.1082 -0.0632,-0.1047 -0.0665,-0.1015 -0.0698,-0.0987 -0.0728,-0.0957 -0.0761,-0.0928 -0.079,-0.0903 -0.0822,-0.0877 -0.0848,-0.0852 -0.0881,-0.0831 -0.0905,-0.0808 -0.0935,-0.079 -0.0963,-0.0769 -0.0988,-0.0751 -0.1013,-0.0736 -0.1041,-0.072 -0.1065,-0.0705 0.0764,-0.1176 0.1087,0.0721 0.1063,0.0736 0.1041,0.0752 0.1016,0.0773 0.0989,0.0791 0.0963,0.0812 0.0939,0.0836 0.0907,0.0859 0.0882,0.0884 0.085,0.0911 0.0822,0.0935 0.0789,0.0968 0.076,0.0995 0.0726,0.1025 0.0693,0.1059 0.066,0.1091 0.0625,0.1126 0.0589,0.1163 0.0552,0.1199 0.0515,0.1234 0.0481,0.1274 0.044,0.1316 0.0399,0.1353 0.0361,0.1399 0.0321,0.1439 0.0282,0.1484 0.0239,0.153 0.0196,0.1578 0.0155,0.1623 0.011,0.1672 0.0066,0.1725 0.0025,0.1773 0,0 z m -4.4806,4.4806 0,-0.1408 0,0 0.2228,-0.007 0.2199,-0.0201 0.2165,-0.0326 0.2134,-0.0451 0.2094,-0.0571 0.2058,-0.0679 0.2013,-0.0789 0.197,-0.0894 0.1924,-0.0991 0.187,-0.1085 0.182,-0.1172 0.1761,-0.126 0.1706,-0.1333 0.1644,-0.141 0.1578,-0.148 0.1509,-0.1541 0.1441,-0.16 0.1367,-0.1652 0.129,-0.1703 0.1213,-0.1746 0.1131,-0.1784 0.1048,-0.1817 0.096,-0.1845 0.087,-0.1865 0.0779,-0.1887 0.0682,-0.1895 0.0583,-0.1907 0.0484,-0.1904 0.038,-0.1903 0.0275,-0.1895 0.0168,-0.1882 0.0054,-0.1864 0.1408,0 -0.006,0.1946 -0.0174,0.196 -0.0285,0.1971 -0.0396,0.1975 -0.0502,0.1976 -0.0605,0.1967 -0.0704,0.1961 -0.0801,0.1941 -0.0896,0.1927 -0.0988,0.1899 -0.1076,0.1867 -0.1163,0.1834 -0.1247,0.1794 -0.1328,0.1747 -0.1405,0.1702 -0.1481,0.1644 -0.1553,0.1585 -0.1622,0.1518 -0.1688,0.145 -0.1754,0.1377 -0.1817,0.1292 -0.1874,0.121 -0.1932,0.1119 -0.1984,0.1023 -0.2036,0.0922 -0.2085,0.0817 -0.2128,0.0707 -0.2172,0.0587 -0.221,0.0467 -0.2249,0.0342 -0.2281,0.0207 -0.231,0.007 0,0 z m -4.4806,-4.4806 0.1408,0 0,0 0.0054,0.2236 0.0168,0.2204 0.0278,0.2172 0.0379,0.2136 0.0484,0.21 0.0587,0.2057 0.0682,0.2019 0.0776,0.197 0.0869,0.1921 0.0958,0.1871 0.1045,0.1819 0.1131,0.1759 0.121,0.1702 0.1288,0.1642 0.1364,0.1572 0.1438,0.1507 0.1507,0.1438 0.1572,0.1364 0.1642,0.1287 0.1701,0.1211 0.1759,0.1131 0.1819,0.1045 0.1872,0.0958 0.192,0.0869 0.197,0.0776 0.2016,0.0682 0.206,0.0586 0.2101,0.0485 0.2136,0.0379 0.2172,0.0278 0.2204,0.0168 0.2236,0.005 0,0.1408 -0.2302,-0.006 -0.2276,-0.0174 -0.2242,-0.0282 -0.2208,-0.0397 -0.2167,-0.0501 -0.2126,-0.0602 -0.2082,-0.0704 -0.2036,-0.0804 -0.1986,-0.0897 -0.1932,-0.099 -0.1875,-0.1079 -0.1819,-0.1163 -0.1757,-0.1249 -0.169,-0.1331 -0.1628,-0.1408 -0.1557,-0.1482 -0.1482,-0.1557 -0.1408,-0.1628 -0.1332,-0.169 -0.1248,-0.1758 -0.1163,-0.1819 -0.1079,-0.1875 -0.099,-0.1931 -0.0897,-0.1987 -0.0804,-0.2036 -0.0704,-0.2079 -0.0603,-0.2129 -0.05,-0.2166 -0.0397,-0.2208 -0.0282,-0.2242 -0.0174,-0.2276 -0.006,-0.2302 0,0 z m 1.9219,-3.6407 0.1408,0 -0.0308,0.058 -0.106,0.0747 -0.1035,0.078 -0.1011,0.0809 -0.0985,0.0837 -0.0959,0.0867 -0.0936,0.0895 -0.0904,0.092 -0.0881,0.0949 -0.0851,0.0974 -0.0822,0.0998 -0.0795,0.1024 -0.0761,0.1048 -0.0733,0.1072 -0.0701,0.1091 -0.0668,0.1118 -0.0635,0.1136 -0.0604,0.1156 -0.0566,0.1178 -0.0534,0.1197 -0.0498,0.1217 -0.046,0.1234 -0.0427,0.1249 -0.0388,0.127 -0.0347,0.1283 -0.0313,0.1299 -0.0272,0.1313 -0.0232,0.1329 -0.0191,0.1345 -0.015,0.1355 -0.0107,0.1367 -0.0066,0.138 -0.0019,0.139 -0.1408,0 0.0025,-0.1434 0.0066,-0.1424 0.0113,-0.1411 0.0154,-0.1399 0.0197,-0.1383 0.0238,-0.1373 0.0282,-0.1357 0.0319,-0.1343 0.0363,-0.1327 0.04,-0.1308 0.0437,-0.1293 0.0478,-0.1274 0.0514,-0.1255 0.055,-0.1235 0.0588,-0.1216 0.062,-0.1196 0.0657,-0.1174 0.069,-0.115 0.0723,-0.1131 0.0755,-0.1104 0.0789,-0.1082 0.0817,-0.1056 0.085,-0.1032 0.0879,-0.1006 0.0907,-0.0977 0.0938,-0.0952 0.0964,-0.0923 0.0991,-0.0895 0.1019,-0.0865 0.1043,-0.0835 0.1069,-0.0802 0.1092,-0.0775 -0.0308,0.058 z m 0.1408,0 0,0.0369 -0.0308,0.0211 0.0308,-0.058 z m 0,-0.3755 0,0 0,0.3755 -0.1408,0 0,-0.3755 0.1408,0 z m -0.1408,0 0,0 0,0 0,0 z m 0.0704,-0.428 0.0704,0.0704 0,0.3576 -0.1408,0 0,-0.3576 0.0704,-0.0704 z m -0.0704,0.0704 0,-0.0704 0.0704,0 -0.0704,0.0704 z m 0.3508,0 -0.0701,0.0704 -0.2103,0 0,-0.1408 0.2103,0 0.0701,0.0704 z m 0,0 0,0.0704 -0.0701,0 0.0701,-0.0704 z m -0.0701,-1.4372 0.0701,0.0704 0,1.3668 -0.1402,0 0,-1.3668 0.0701,-0.0704 z m 0,0 0.0701,0 0,0.0704 -0.0701,-0.0704 z m -0.1947,0 0,0 0.1947,0 0,0.1408 -0.1947,0 0,-0.1408 z m 0,0.1408 0,0 0,0 0,0 z m -0.428,-0.0704 0.0704,-0.0704 0.3576,0 0,0.1408 -0.3576,0 -0.0704,-0.0704 z m 0.0704,0.0704 -0.0704,0 0,-0.0704 0.0704,0.0704 z m 0.0704,-0.4279 0,0 0,0.3575 -0.1408,0 0,-0.3575 0.1408,0 z m -0.1408,0 0,0 0,0 0,0 z m 0.1408,-0.5267 0,0 0,0.5267 -0.1408,0 0,-0.5267 0.1408,0 z m -0.1408,0 0,0 0,0 0,0 z m 0.0704,-0.428 0.0704,0.0704 0,0.3576 -0.1408,0 0,-0.3576 0.0704,-0.0704 z m -0.0704,0.0704 0,-0.0704 0.0704,0 -0.0704,0.0704 z m 0.428,0.0704 0,0 -0.3576,0 0,-0.1408 0.3576,0 0,0.1408 z m 0,-0.1408 0,0 0,0 0,0 z m 0.1863,0.0704 -0.0704,0.0704 -0.1159,0 0,-0.1408 0.1159,0 0.0704,0.0704 z m 0,0 0,0.0704 -0.0704,0 0.0704,-0.0704 z m -0.0883,-2.0409 0.0883,0.0679 0,1.973 -0.1408,0 0,-1.973 0.0525,-0.0679 z m 0,0 0.0883,-0.0231 0,0.091 -0.0883,-0.0679 z m -6.8142,9.0233 -0.1408,0 0,0 0.0088,-0.4036 0.0254,-0.3996 0.0423,-0.3949 0.0583,-0.3898 0.0744,-0.3842 0.09,-0.3787 0.1051,-0.3723 0.1198,-0.3659 0.1346,-0.3591 0.1486,-0.3521 0.1623,-0.3443 0.176,-0.3367 0.1891,-0.3284 0.2019,-0.3195 0.2143,-0.311 0.2262,-0.3015 0.2379,-0.292 0.2494,-0.2821 0.2604,-0.2716 0.2713,-0.261 0.2813,-0.25 0.2914,-0.2389 0.301,-0.2269 0.3103,-0.2151 0.3194,-0.2023 0.3279,-0.1901 0.336,-0.1765 0.3438,-0.1635 0.3516,-0.1494 0.3587,-0.1355 0.3656,-0.1208 0.3719,-0.106 0.0358,0.1358 -0.3665,0.1044 -0.36,0.1192 -0.3533,0.1333 -0.346,0.1472 -0.339,0.1607 -0.331,0.1743 -0.3229,0.1867 -0.3144,0.1997 -0.3055,0.2117 -0.2966,0.2237 -0.287,0.2349 -0.2773,0.2462 -0.2669,0.2572 -0.2566,0.2678 -0.2456,0.2777 -0.2345,0.2876 -0.223,0.2971 -0.2109,0.306 -0.1987,0.3151 -0.1863,0.3234 -0.1732,0.3313 -0.1601,0.3393 -0.1464,0.3465 -0.1324,0.3537 -0.1182,0.3603 -0.1035,0.3669 -0.0884,0.3727 -0.0732,0.3786 -0.0577,0.3838 -0.0413,0.3889 -0.0254,0.3934 -0.0082,0.3982 0,0 z m 9.1889,9.1889 0,0.1408 0,0 -0.4797,-0.0124 -0.4738,-0.036 -0.4668,-0.0591 -0.4595,-0.0824 -0.4513,-0.1042 -0.4426,-0.1256 -0.4338,-0.1466 -0.4235,-0.1673 -0.4134,-0.1868 -0.4022,-0.2061 -0.3906,-0.2247 -0.3787,-0.2425 -0.3658,-0.2601 -0.3522,-0.2771 -0.3388,-0.2932 -0.3241,-0.3088 -0.3088,-0.3241 -0.2932,-0.3388 -0.2771,-0.3522 -0.2601,-0.3658 -0.2425,-0.3787 -0.2247,-0.3906 -0.2061,-0.4022 -0.1868,-0.4134 -0.1673,-0.4235 -0.1466,-0.4338 -0.1256,-0.4426 -0.1042,-0.4513 -0.0824,-0.4595 -0.0591,-0.4668 -0.036,-0.4738 -0.0124,-0.4797 0.1408,0 0.0118,0.4731 0.0354,0.4666 0.0587,0.4598 0.0806,0.4523 0.1026,0.4447 0.124,0.436 0.1444,0.4266 0.1645,0.4175 0.184,0.4068 0.2029,0.3962 0.2213,0.385 0.2393,0.3727 0.2563,0.3602 0.2727,0.3474 0.2888,0.3332 0.3044,0.3191 0.3191,0.3044 0.3332,0.2888 0.3474,0.2727 0.3602,0.2563 0.3727,0.2393 0.385,0.2213 0.3962,0.2029 0.4068,0.184 0.4175,0.1645 0.4266,0.1444 0.436,0.124 0.4447,0.1026 0.4523,0.0806 0.4598,0.0587 0.4666,0.0354 0.4731,0.0118 0,0 z"
         inkscape:connector-curvature="0"
         style="fill:#72706f;fill-rule:nonzero" /></g><g
       id="g38"><path
         class="fil2"
         d="m 27.7779,253.056 0,1.4404 0.116,0 0.3575,0 0,0.3576 0,0.5267 0,0.3575 -0.3575,0 -0.1948,0 0,1.3521 0.0279,0.0148 0.1824,0 0,0.1012 c 1.4685,0.8572 2.4556,2.4494 2.4556,4.2723 0,0.0167 -5e-4,0.0333 -7e-4,0.0501 l 3.8009,0 c 1e-4,-0.0167 6e-4,-0.0334 6e-4,-0.0501 0,-4.0121 -2.7037,-7.3934 -6.3879,-8.4226 z m -4.8449,4.1504 0,-0.1013 0.1825,0 0.0278,-0.0147 0,-1.3522 -0.1947,0 -0.3576,0 0,-0.3575 0,-0.5267 0,-0.3576 0.3576,0 0.1159,0 0,-1.4404 c -3.6841,1.0292 -6.3878,4.4106 -6.3878,8.4226 0,0.0167 5e-4,0.0334 6e-4,0.0501 l 3.8009,0 c -2e-4,-0.0168 -7e-4,-0.0334 -7e-4,-0.0501 0,-1.8229 0.9871,-3.415 2.4555,-4.2722 z"
         id="path40"
         inkscape:connector-curvature="0"
         style="fill:#1f1a17" /><path
         id="path42"
         class="fil3"
         d="m 27.7779,254.567 -0.0701,-0.0704 0,-1.4404 0.1402,0 0,1.4404 -0.0701,0.0704 z m 0,0 -0.0701,0 0,-0.0704 0.0701,0.0704 z m 0.116,0 0,0 -0.116,0 0,-0.1408 0.116,0 0,0.1408 z m 0,-0.1408 0,0 0,0 0,0 z m 0.4279,0.0704 -0.0704,0.0704 -0.3575,0 0,-0.1408 0.3575,0 0.0704,0.0704 z m -0.0704,-0.0704 0.0704,0 0,0.0704 -0.0704,-0.0704 z m -0.0704,0.428 0,0 0,-0.3576 0.1408,0 0,0.3576 -0.1408,0 z m 0.1408,0 0,0 0,0 0,0 z m -0.1408,0.5267 0,0 0,-0.5267 0.1408,0 0,0.5267 -0.1408,0 z m 0.1408,0 0,0 0,0 0,0 z m -0.0704,0.4279 -0.0704,-0.0704 0,-0.3575 0.1408,0 0,0.3575 -0.0704,0.0704 z m 0.0704,-0.0704 0,0.0704 -0.0704,0 0.0704,-0.0704 z m -0.4279,-0.0704 0,0 0.3575,0 0,0.1408 -0.3575,0 0,-0.1408 z m 0,0.1408 0,0 0,0 0,0 z m -0.2652,-0.0704 0.0704,-0.0704 0.1948,0 0,0.1408 -0.1948,0 -0.0704,-0.0704 z m 0,0 0,-0.0704 0.0704,0 -0.0704,0.0704 z m 0.0374,1.4142 -0.0374,-0.0621 0,-1.3521 0.1408,0 0,1.3521 -0.1034,0.0621 z m 0,0 -0.0374,-0.0198 0,-0.0423 0.0374,0.0621 z m 0.0609,0.0231 -0.033,-0.008 -0.0279,-0.0148 0.066,-0.1242 0.0279,0.0148 -0.033,0.1325 z m 0,0 -0.0173,0 -0.0157,-0.008 0.033,0.008 z m 0.2528,-0.0704 -0.0704,0.0704 -0.1824,0 0,-0.1408 0.1824,0 0.0704,0.0704 z m -0.0704,-0.0704 0.0704,0 0,0.0704 -0.0704,-0.0704 z m -0.0355,0.2324 -0.0349,-0.0608 0,-0.1012 0.1408,0 0,0.1012 -0.1059,0.0608 z m 0,0 -0.0349,-0.0203 0,-0.0405 0.0349,0.0608 z m 2.5615,4.2115 -0.1408,0 0,0 -0.0026,-0.168 -0.0085,-0.1663 -0.0139,-0.165 -0.0195,-0.1632 -0.0248,-0.1617 -0.0298,-0.1595 -0.0351,-0.158 -0.0402,-0.1556 -0.0453,-0.1539 -0.05,-0.1517 -0.0547,-0.1494 -0.0596,-0.1473 -0.0642,-0.1446 -0.0686,-0.1421 -0.073,-0.1396 -0.0774,-0.1369 -0.0817,-0.1341 -0.0857,-0.1312 -0.09,-0.1282 -0.0938,-0.1253 -0.0978,-0.1218 -0.1012,-0.1188 -0.1053,-0.1155 -0.1088,-0.112 -0.1122,-0.1087 -0.1158,-0.1047 -0.119,-0.1013 -0.1225,-0.0975 -0.1253,-0.0934 -0.1286,-0.0895 -0.1315,-0.0856 -0.1343,-0.0811 0.071,-0.1216 0.1381,0.0839 0.1353,0.0878 0.132,0.0923 0.1291,0.0962 0.1257,0.1001 0.1224,0.1041 0.119,0.1081 0.1156,0.1113 0.112,0.1154 0.1081,0.1187 0.1046,0.1222 0.1004,0.1256 0.0966,0.1287 0.0922,0.132 0.0885,0.135 0.0839,0.1379 0.0796,0.1409 0.0752,0.1434 0.0708,0.1465 0.0658,0.149 0.0612,0.1511 0.0565,0.1538 0.0516,0.1561 0.0463,0.1583 0.0414,0.1606 0.0361,0.1624 0.031,0.1645 0.0254,0.1661 0.0199,0.168 0.0145,0.1694 0.0085,0.1713 0.0032,0.1724 0,0 z m -0.0711,-0.0203 0,0.1408 -0.0701,-0.0712 -3e-4,-8e-4 3e-4,-0.004 10e-5,-0.001 -3e-4,6e-4 0,-0.002 3e-4,-0.004 10e-5,-0.001 -3e-4,6e-4 3e-4,-0.004 10e-5,-10e-4 -3e-4,6e-4 0,-10e-4 3e-4,-0.004 10e-5,-0.002 -3e-4,10e-4 3e-4,-0.004 10e-5,-0.002 -3e-4,0.001 0,-0.002 3e-4,-0.004 10e-5,-10e-4 -3e-4,6e-4 0,-0.001 0,-0.002 3e-4,-0.004 10e-5,-0.001 -3e-4,9e-4 0,-0.002 0,-0.002 0,-0.002 0,-0.002 0,-0.002 0.1408,0 0,0.002 0,0.002 0,0.002 0,0.002 0,0.002 -3e-4,0.004 -10e-5,0.002 3e-4,-9e-4 0,0.002 0,10e-4 -3e-4,0.004 -10e-5,0.002 3e-4,-0.001 0,0.002 -3e-4,0.004 -10e-5,10e-4 3e-4,-6e-4 -3e-4,0.004 -10e-5,10e-4 3e-4,-6e-4 0,10e-4 -3e-4,0.004 -10e-5,0.002 3e-4,-0.001 -3e-4,0.004 -10e-5,0.002 3e-4,-0.001 0,0.002 -3e-4,0.004 -10e-5,0.002 3e-4,-0.001 -3e-4,0.002 -0.0701,-0.0712 z m 0,0.1408 -0.0709,0 8e-4,-0.0712 0.0701,0.0712 z m 3.871,-0.0701 -0.0701,0.0701 -3.8009,0 0,-0.1408 3.8009,0 0.0701,0.0707 z m 0,0 -4e-4,0.0701 -0.0697,0 0.0701,-0.0701 z m -0.1399,-0.0504 0.1408,0 0,0 0,0.002 0,0.002 0,0.002 0,0.002 0,0.002 -3e-4,0.004 -1e-4,0.002 3e-4,-10e-4 0,0.002 0,0.002 -3e-4,0.004 -10e-5,10e-4 3e-4,-6e-4 0,0.002 -3e-4,0.004 -1e-4,0.002 3e-4,-10e-4 0,0.002 -3e-4,0.004 -10e-5,0.001 3e-4,-6e-4 0,10e-4 -3e-4,0.004 -1e-4,0.002 3e-4,-0.001 0,0.002 0,0.002 -3e-4,0.004 -10e-5,10e-4 3e-4,-6e-4 0,0.002 -3e-4,0.002 -0.1402,-6e-4 -3e-4,-10e-4 0,-0.002 3e-4,-0.004 10e-5,-0.002 -3e-4,10e-4 0,-0.002 0,-0.002 3e-4,-0.004 1e-4,-0.001 -3e-4,6e-4 0,-10e-4 3e-4,-0.004 10e-5,-0.002 -3e-4,0.001 0,-0.002 3e-4,-0.004 1e-4,-10e-4 -3e-4,6e-4 0,-0.002 3e-4,-0.004 10e-5,-0.002 -3e-4,10e-4 0,-0.002 0,-0.002 3e-4,-0.004 1e-4,-10e-4 -3e-4,6e-4 0,-0.002 0,-0.002 0,-0.002 0,-0.002 0,-0.002 0,0 z m -6.2474,-8.4226 -0.1402,0 0.0888,-0.0676 0.3452,0.1041 0.3392,0.1176 0.3327,0.1311 0.3261,0.1438 0.3189,0.1567 0.3114,0.169 0.3039,0.1806 0.2956,0.1927 0.2876,0.2039 0.2788,0.2148 0.2699,0.2254 0.2603,0.2362 0.2508,0.246 0.2411,0.256 0.2308,0.2651 0.22,0.2744 0.2094,0.2832 0.1981,0.2919 0.1868,0.3 0.1747,0.3077 0.1625,0.3153 0.1502,0.3224 0.1373,0.3295 0.1242,0.3361 0.111,0.3422 0.0968,0.3483 0.0831,0.3537 0.0687,0.3594 0.0538,0.3639 0.0391,0.3689 0.0234,0.3734 0.0082,0.3769 -0.1408,0 -0.0076,-0.3715 -0.0234,-0.3672 -0.0381,-0.3629 -0.0532,-0.3585 -0.0675,-0.3532 -0.0815,-0.3483 -0.0958,-0.3427 -0.1088,-0.3368 -0.1224,-0.3305 -0.1351,-0.3241 -0.1476,-0.3174 -0.1603,-0.3103 -0.1719,-0.3029 -0.1834,-0.295 -0.1949,-0.2869 -0.206,-0.2788 -0.2168,-0.27 -0.227,-0.2613 -0.2371,-0.2516 -0.247,-0.2422 -0.2565,-0.2322 -0.2655,-0.2222 -0.2744,-0.2114 -0.2826,-0.2007 -0.2912,-0.1893 -0.2989,-0.178 -0.3066,-0.1662 -0.3139,-0.1539 -0.3205,-0.1416 -0.3273,-0.1289 -0.3336,-0.116 -0.3398,-0.1025 0.0888,-0.0676 z m -0.1402,0 0,-0.0924 0.0888,0.0248 -0.0888,0.0676 z m -4.7748,3.979 0.0704,0.0701 0,0.1013 -0.1408,0 0,-0.1013 0.0704,-0.0701 z m -0.0704,0.0701 0,-0.0701 0.0704,0 -0.0704,0.0701 z m 0.2856,0.0621 -0.0327,0.008 -0.1825,0 0,-0.1402 0.1825,0 0.0327,0.1322 z m 0,0 -0.0151,0.008 -0.0176,0 0.0327,-0.008 z m 0.0655,-0.0768 -0.0377,0.0621 -0.0278,0.0147 -0.0654,-0.1242 0.0278,-0.0147 0.1031,0.0621 z m 0,0 0,0.0421 -0.0377,0.02 0.0377,-0.0621 z m -0.0704,-1.4226 0.0704,0.0704 0,1.3522 -0.1408,0 0,-1.3522 0.0704,-0.0704 z m 0,0 0.0704,0 0,0.0704 -0.0704,-0.0704 z m -0.1947,0 0,0 0.1947,0 0,0.1408 -0.1947,0 0,-0.1408 z m 0,0.1408 0,0 0,0 0,0 z m -0.428,-0.0704 0.0704,-0.0704 0.3576,0 0,0.1408 -0.3576,0 -0.0704,-0.0704 z m 0.0704,0.0704 -0.0704,0 0,-0.0704 0.0704,0.0704 z m 0.0704,-0.4279 0,0 0,0.3575 -0.1408,0 0,-0.3575 0.1408,0 z m -0.1408,0 0,0 0,0 0,0 z m 0.1408,-0.5267 0,0 0,0.5267 -0.1408,0 0,-0.5267 0.1408,0 z m -0.1408,0 0,0 0,0 0,0 z m 0.0704,-0.428 0.0704,0.0704 0,0.3576 -0.1408,0 0,-0.3576 0.0704,-0.0704 z m -0.0704,0.0704 0,-0.0704 0.0704,0 -0.0704,0.0704 z m 0.428,0.0704 0,0 -0.3576,0 0,-0.1408 0.3576,0 0,0.1408 z m 0,-0.1408 0,0 0,0 0,0 z m 0.186,0.0704 -0.0701,0.0704 -0.1159,0 0,-0.1408 0.1159,0 0.0701,0.0704 z m 0,0 0,0.0704 -0.0701,0 0.0701,-0.0704 z m -0.0888,-1.508 0.0888,0.0676 0,1.4404 -0.1402,0 0,-1.4404 0.0514,-0.0676 z m 0,0 0.0888,-0.0248 0,0.0924 -0.0888,-0.0676 z m -6.2987,8.4902 -0.1408,0 0,0 0.0082,-0.3769 0.0234,-0.3733 0.0391,-0.3689 0.0538,-0.364 0.0687,-0.3594 0.0831,-0.3537 0.0968,-0.3482 0.111,-0.3423 0.1242,-0.3361 0.1373,-0.3295 0.1502,-0.3224 0.1624,-0.3153 0.1748,-0.3077 0.1868,-0.3 0.1981,-0.2919 0.2094,-0.2831 0.22,-0.2745 0.2308,-0.2651 0.2411,-0.256 0.2508,-0.246 0.2603,-0.2361 0.2699,-0.2254 0.2787,-0.2149 0.2877,-0.2039 0.2956,-0.1926 0.3039,-0.1807 0.3114,-0.1689 0.3188,-0.1568 0.3261,-0.1438 0.3327,-0.1311 0.3392,-0.1176 0.3452,-0.1041 0.0374,0.1352 -0.3398,0.1025 -0.3336,0.116 -0.3273,0.1289 -0.3205,0.1416 -0.3138,0.154 -0.3066,0.1661 -0.2989,0.1781 -0.2912,0.1892 -0.2827,0.2007 -0.2743,0.2115 -0.2655,0.2222 -0.2565,0.2321 -0.247,0.2422 -0.2371,0.2516 -0.227,0.2613 -0.2168,0.2701 -0.206,0.2787 -0.1949,0.2869 -0.1834,0.295 -0.172,0.3029 -0.1602,0.3103 -0.1476,0.3174 -0.1351,0.3241 -0.1224,0.3305 -0.1088,0.3369 -0.0958,0.3426 -0.0815,0.3483 -0.0675,0.3532 -0.0532,0.3586 -0.0381,0.3629 -0.0234,0.3671 -0.0076,0.3715 0,0 z m -0.0698,-0.0203 0,0.1408 -0.0701,-0.0701 -3e-4,-0.002 0,-0.002 3e-4,6e-4 -10e-5,-10e-4 -3e-4,-0.004 0,-0.002 0,-0.002 3e-4,0.001 -10e-5,-0.002 -3e-4,-0.004 0,-10e-4 3e-4,6e-4 -10e-5,-10e-4 -3e-4,-0.004 0,-0.002 3e-4,0.001 -10e-5,-0.002 -3e-4,-0.004 0,-0.002 3e-4,6e-4 -10e-5,-10e-4 -3e-4,-0.004 0,-0.002 0,-0.002 3e-4,0.001 -10e-5,-0.002 -3e-4,-0.004 0,-0.002 0,-0.002 0,-0.002 0,-0.002 0,-0.002 0.1408,0 0,0.002 0,0.002 0,0.002 0,0.002 0,0.002 -3e-4,-6e-4 10e-5,10e-4 3e-4,0.004 0,0.002 0,0.002 -3e-4,-10e-4 10e-5,0.002 3e-4,0.004 0,0.002 -3e-4,-6e-4 10e-5,10e-4 3e-4,0.004 0,0.002 -3e-4,-0.001 10e-5,0.002 3e-4,0.004 0,10e-4 -3e-4,-6e-4 10e-5,0.001 3e-4,0.004 0,0.002 0,0.002 -3e-4,-10e-4 10e-5,0.002 3e-4,0.004 0,0.002 -3e-4,0.001 -0.0701,-0.0701 z m 0,0.1408 -0.0696,0 -5e-4,-0.0701 0.0701,0.0701 z m 3.871,-0.0712 -0.0701,0.0712 -3.8009,0 0,-0.1408 3.8009,0 0.0701,0.0696 z m 0,0 8e-4,0.0712 -0.0709,0 0.0701,-0.0712 z m -0.1412,-0.0493 0.1408,0 0,0 0,0.002 0,0.002 0,0.002 0,0.002 0,0.002 -3e-4,-9e-4 10e-5,10e-4 3e-4,0.004 0,0.002 0,0.001 -3e-4,-6e-4 10e-5,0.001 3e-4,0.004 0,0.002 -3e-4,-10e-4 10e-5,0.002 3e-4,0.004 -3e-4,-10e-4 10e-5,0.002 3e-4,0.004 0,0.001 -3e-4,-6e-4 1e-4,10e-4 3e-4,0.004 -3e-4,-6e-4 10e-5,10e-4 3e-4,0.004 0,0.002 -3e-4,-6e-4 10e-5,10e-4 3e-4,0.004 -3e-4,8e-4 -0.1402,0.002 -3e-4,-0.002 3e-4,0.001 -10e-5,-0.002 -3e-4,-0.004 0,-0.002 3e-4,0.001 -10e-5,-0.002 -3e-4,-0.004 3e-4,0.001 -10e-5,-0.002 -3e-4,-0.004 0,-10e-4 3e-4,6e-4 -1e-4,-0.001 -3e-4,-0.004 3e-4,6e-4 -10e-5,-10e-4 -3e-4,-0.004 0,-0.002 3e-4,0.001 -10e-5,-0.002 -3e-4,-0.004 0,-10e-4 0,-0.002 3e-4,9e-4 -10e-5,-0.002 -3e-4,-0.004 0,-0.002 0,-0.002 0,-0.002 0,-0.002 0,-0.002 0,0 z m 2.4555,-4.2722 0.1408,0 -0.0349,0.0608 -0.1343,0.0811 -0.1318,0.0856 -0.1283,0.0894 -0.1253,0.0935 -0.1224,0.0975 -0.1191,0.1013 -0.1158,0.1047 -0.1122,0.1087 -0.1087,0.1119 -0.1053,0.1155 -0.1012,0.1188 -0.0978,0.1219 -0.0938,0.1253 -0.09,0.1282 -0.0857,0.1311 -0.0817,0.1342 -0.0774,0.1368 -0.073,0.1397 -0.0686,0.142 -0.0642,0.1446 -0.0596,0.1473 -0.0547,0.1494 -0.05,0.1517 -0.0453,0.1539 -0.0402,0.1556 -0.0351,0.158 -0.0298,0.1595 -0.0248,0.1617 -0.0195,0.1632 -0.0139,0.165 -0.0085,0.1663 -0.0026,0.168 -0.1408,0 0.0032,-0.1724 0.0085,-0.1713 0.0145,-0.1694 0.0199,-0.168 0.0254,-0.1661 0.031,-0.1645 0.0361,-0.1624 0.0414,-0.1606 0.0463,-0.1583 0.0516,-0.1561 0.0565,-0.1538 0.0612,-0.1511 0.0658,-0.149 0.0708,-0.1464 0.0752,-0.1435 0.0796,-0.1408 0.0839,-0.138 0.0885,-0.1349 0.0922,-0.132 0.0966,-0.1287 0.1004,-0.1257 0.1046,-0.1222 0.1081,-0.1187 0.1119,-0.1153 0.1156,-0.1113 0.119,-0.1081 0.1225,-0.1041 0.1256,-0.1001 0.1291,-0.0963 0.1323,-0.0922 0.135,-0.0878 0.1381,-0.0839 -0.0349,0.0608 z m 0.1408,0 0,0.0404 -0.0349,0.0204 0.0349,-0.0608 z"
         inkscape:connector-curvature="0"
         style="fill:#1f1a17;fill-rule:nonzero" /></g><rect
       class="fil4"
       x="23.4221"
       y="252.351"
       width="3.9983301"
       height="2.31776"
       id="rect44"
       style="fill:url(#linearGradient3037)" /><rect
       class="fil5"
       x="22.9485"
       y="254.854"
       width="4.9453702"
       height="0.52671301"
       id="rect46"
       style="fill:url(#linearGradient3039)" /><rect
       class="fil4"
       x="23.5009"
       y="255.565"
       width="3.8406301"
       height="1.71189"
       id="rect48"
       style="fill:url(#id1)" /><rect
       class="fil5"
       x="23.2906"
       y="257.46201"
       width="4.26127"
       height="0.52671301"
       id="rect50"
       style="fill:url(#linearGradient3041)" /><polygon
       class="fil6"
       points="27.0915,258.174 26.7875,260.808 24.055,260.808 23.7509,258.174 "
       id="polygon52"
       style="fill:url(#linearGradient3043)" /><polygon
       class="fil6"
       points="26.4867,260.993 25.6845,261.757 25.1576,261.757 24.3558,260.993 "
       id="polygon54"
       style="fill:url(#linearGradient3045)" /><polygon
       class="fil7 str0"
       points="25.4213,269.43 23.1461,270.316 24.2837,266.195 25.4213,262.074 26.5588,266.195 27.6965,270.316 "
       id="polygon56"
       style="fill:#da251d;stroke:#da251d;stroke-width:0.0762" /></g></svg>